<svg width="16" height="16" viewBox="0 0 16 16" fill="none" xmlns="http://www.w3.org/2000/svg">
<path d="M5.33366 14.6667C5.70185 14.6667 6.00033 14.3682 6.00033 14C6.00033 13.6319 5.70185 13.3334 5.33366 13.3334C4.96547 13.3334 4.66699 13.6319 4.66699 14C4.66699 14.3682 4.96547 14.6667 5.33366 14.6667Z" stroke="#0A0A0A" stroke-width="1.33333" stroke-linecap="round" stroke-linejoin="round"/>
<path d="M12.6667 14.6667C13.0349 14.6667 13.3333 14.3682 13.3333 14C13.3333 13.6319 13.0349 13.3334 12.6667 13.3334C12.2985 13.3334 12 13.6319 12 14C12 14.3682 12.2985 14.6667 12.6667 14.6667Z" stroke="#0A0A0A" stroke-width="1.33333" stroke-linecap="round" stroke-linejoin="round"/>
<path d="M1.36621 1.3667H2.69954L4.47288 9.6467C4.53793 9.94994 4.70666 10.221 4.95002 10.4133C5.19338 10.6055 5.49615 10.7069 5.80621 10.7H12.3262C12.6297 10.6995 12.9239 10.5956 13.1602 10.4053C13.3966 10.215 13.561 9.94972 13.6262 9.65337L14.7262 4.70003H3.41288" stroke="#0A0A0A" stroke-width="1.33333" stroke-linecap="round" stroke-linejoin="round"/>
</svg>
