<svg width="118" height="19" viewBox="0 0 118 19" fill="none" xmlns="http://www.w3.org/2000/svg">
<path d="M7.5 15.82C6.20667 15.82 5.05333 15.5267 4.04 14.94C3.04 14.3533 2.25333 13.5067 1.68 12.4C1.12 11.2933 0.84 9.96667 0.84 8.42C0.84 6.91333 1.11333 5.60667 1.66 4.5C2.20667 3.38 2.98667 2.51333 4 1.9C5.01333 1.28667 6.2 0.98 7.56 0.98C9.41333 0.98 10.8533 1.44 11.88 2.36C12.92 3.26667 13.5867 4.56667 13.88 6.26L10.72 6.38C10.56 5.48667 10.2133 4.79333 9.68 4.3C9.14667 3.79333 8.44 3.54 7.56 3.54C6.8 3.54 6.15333 3.74 5.62 4.14C5.08667 4.54 4.68 5.10667 4.4 5.84C4.12 6.57333 3.98 7.43333 3.98 8.42C3.98 9.42 4.12 10.2867 4.4 11.02C4.69333 11.74 5.10667 12.2933 5.64 12.68C6.17333 13.0667 6.80667 13.26 7.54 13.26C8.5 13.26 9.24 12.9933 9.76 12.46C10.2933 11.9133 10.6267 11.16 10.76 10.2L13.94 10.32C13.7533 11.48 13.3867 12.4667 12.84 13.28C12.2933 14.0933 11.5733 14.72 10.68 15.16C9.8 15.6 8.74 15.82 7.5 15.82ZM19.0117 15.74C17.9051 15.74 16.9984 15.4867 16.2917 14.98C15.5984 14.46 15.2517 13.74 15.2517 12.82C15.2517 11.8733 15.5451 11.1467 16.1317 10.64C16.7317 10.12 17.6117 9.74 18.7717 9.5L22.2317 8.82C22.2317 8.12667 22.0717 7.60667 21.7517 7.26C21.4451 6.9 20.9984 6.72 20.4117 6.72C19.8384 6.72 19.3917 6.85333 19.0717 7.12C18.7517 7.37333 18.5451 7.75333 18.4517 8.26L15.4317 8.12C15.6317 6.94667 16.1584 6.06 17.0117 5.46C17.8784 4.84667 19.0117 4.54 20.4117 4.54C22.0117 4.54 23.2117 4.92 24.0117 5.68C24.8251 6.44 25.2317 7.55333 25.2317 9.02V12.68C25.2317 12.9867 25.2784 13.1933 25.3717 13.3C25.4784 13.3933 25.6317 13.44 25.8317 13.44H26.1317V15.5C26.0384 15.5267 25.8851 15.5533 25.6717 15.58C25.4717 15.6067 25.2717 15.62 25.0717 15.62C24.6451 15.62 24.2451 15.5467 23.8717 15.4C23.5117 15.2533 23.2184 15.0067 22.9917 14.66C22.7651 14.3 22.6517 13.7933 22.6517 13.14L22.9117 13.34C22.7784 13.82 22.5384 14.24 22.1917 14.6C21.8584 14.96 21.4184 15.24 20.8717 15.44C20.3384 15.64 19.7184 15.74 19.0117 15.74ZM19.7317 13.68C20.2251 13.68 20.6584 13.5867 21.0317 13.4C21.4051 13.2 21.6984 12.9133 21.9117 12.54C22.1251 12.1667 22.2317 11.7267 22.2317 11.22V10.7L19.7917 11.22C19.3117 11.3133 18.9451 11.4733 18.6917 11.7C18.4517 11.9133 18.3317 12.1933 18.3317 12.54C18.3317 12.9 18.4517 13.18 18.6917 13.38C18.9317 13.58 19.2784 13.68 19.7317 13.68ZM27.7067 15.5V4.78H30.5467L30.6467 7.9L30.4267 7.84C30.6001 6.76 30.9067 5.98 31.3467 5.5C31.7867 5.02 32.3934 4.78 33.1667 4.78H34.1467V7.26H33.1667C32.6067 7.26 32.1467 7.33333 31.7867 7.48C31.4267 7.62667 31.1534 7.86 30.9667 8.18C30.7934 8.5 30.7067 8.93333 30.7067 9.48V15.5H27.7067ZM35.6364 18.5V4.78H38.5164L38.5764 7.04L38.3364 6.94C38.6031 6.16667 39.0364 5.57333 39.6364 5.16C40.2364 4.74667 40.9364 4.54 41.7364 4.54C42.7364 4.54 43.5697 4.78667 44.2364 5.28C44.9031 5.77333 45.4031 6.44667 45.7364 7.3C46.0831 8.14 46.2564 9.08667 46.2564 10.14C46.2564 11.18 46.0831 12.1267 45.7364 12.98C45.4031 13.8333 44.8964 14.5067 44.2164 15C43.5497 15.4933 42.7164 15.74 41.7164 15.74C41.1964 15.74 40.7097 15.6467 40.2564 15.46C39.8031 15.26 39.4097 14.9867 39.0764 14.64C38.7564 14.2933 38.5231 13.88 38.3764 13.4L38.6364 13.24V18.5H35.6364ZM40.8964 13.44C41.6031 13.44 42.1564 13.1467 42.5564 12.56C42.9697 11.9733 43.1764 11.1667 43.1764 10.14C43.1764 9.11333 42.9697 8.30667 42.5564 7.72C42.1564 7.13333 41.6031 6.84 40.8964 6.84C40.4297 6.84 40.0231 6.96667 39.6764 7.22C39.3431 7.46 39.0831 7.82667 38.8964 8.32C38.7231 8.81333 38.6364 9.42 38.6364 10.14C38.6364 10.86 38.7231 11.4667 38.8964 11.96C39.0831 12.4533 39.3431 12.8267 39.6764 13.08C40.0231 13.32 40.4297 13.44 40.8964 13.44ZM52.9369 15.74C51.8435 15.74 50.8902 15.5133 50.0769 15.06C49.2769 14.5933 48.6502 13.94 48.1969 13.1C47.7569 12.26 47.5369 11.2733 47.5369 10.14C47.5369 9.00667 47.7569 8.02667 48.1969 7.2C48.6502 6.36 49.2769 5.70667 50.0769 5.24C50.8769 4.77333 51.8235 4.54 52.9169 4.54C53.9835 4.54 54.9102 4.77333 55.6969 5.24C56.4835 5.70667 57.0902 6.37333 57.5169 7.24C57.9569 8.10667 58.1769 9.14 58.1769 10.34V10.94H50.6369C50.6769 11.7933 50.9035 12.4267 51.3169 12.84C51.7435 13.2533 52.3035 13.46 52.9969 13.46C53.5035 13.46 53.9235 13.3533 54.2569 13.14C54.6035 12.9267 54.8502 12.6 54.9969 12.16L58.0169 12.34C57.7369 13.4067 57.1435 14.24 56.2369 14.84C55.3302 15.44 54.2302 15.74 52.9369 15.74ZM50.6369 9.1H55.0969C55.0569 8.31333 54.8369 7.72667 54.4369 7.34C54.0502 6.95333 53.5435 6.76 52.9169 6.76C52.2902 6.76 51.7702 6.96667 51.3569 7.38C50.9569 7.78 50.7169 8.35333 50.6369 9.1ZM64.1389 15.5C63.0322 15.5 62.2189 15.2467 61.6989 14.74C61.1789 14.22 60.9189 13.4 60.9189 12.28V2.26H63.9189V11.92C63.9189 12.44 64.0256 12.7933 64.2389 12.98C64.4656 13.1667 64.7989 13.26 65.2389 13.26H66.7389V15.5H64.1389ZM59.1989 7.02V4.78H66.7389V7.02H59.1989ZM74.7852 15.82C73.4918 15.82 72.3385 15.5267 71.3252 14.94C70.3252 14.3533 69.5385 13.5067 68.9652 12.4C68.4052 11.2933 68.1252 9.96667 68.1252 8.42C68.1252 6.91333 68.3985 5.60667 68.9452 4.5C69.4918 3.38 70.2718 2.51333 71.2852 1.9C72.2985 1.28667 73.4852 0.98 74.8452 0.98C76.6985 0.98 78.1385 1.44 79.1652 2.36C80.2052 3.26667 80.8718 4.56667 81.1652 6.26L78.0052 6.38C77.8452 5.48667 77.4985 4.79333 76.9652 4.3C76.4318 3.79333 75.7252 3.54 74.8452 3.54C74.0852 3.54 73.4385 3.74 72.9052 4.14C72.3718 4.54 71.9652 5.10667 71.6852 5.84C71.4052 6.57333 71.2652 7.43333 71.2652 8.42C71.2652 9.42 71.4052 10.2867 71.6852 11.02C71.9785 11.74 72.3918 12.2933 72.9252 12.68C73.4585 13.0667 74.0918 13.26 74.8252 13.26C75.7852 13.26 76.5252 12.9933 77.0452 12.46C77.5785 11.9133 77.9118 11.16 78.0452 10.2L81.2252 10.32C81.0385 11.48 80.6718 12.4667 80.1252 13.28C79.5785 14.0933 78.8585 14.72 77.9652 15.16C77.0852 15.6 76.0252 15.82 74.7852 15.82ZM83.1169 15.5V4.78H85.9569L86.0569 7.9L85.8369 7.84C86.0102 6.76 86.3169 5.98 86.7569 5.5C87.1969 5.02 87.8035 4.78 88.5769 4.78H89.5569V7.26H88.5769C88.0169 7.26 87.5569 7.33333 87.1969 7.48C86.8369 7.62667 86.5635 7.86 86.3769 8.18C86.2035 8.5 86.1169 8.93333 86.1169 9.48V15.5H83.1169ZM94.1094 15.74C93.0027 15.74 92.096 15.4867 91.3894 14.98C90.696 14.46 90.3494 13.74 90.3494 12.82C90.3494 11.8733 90.6427 11.1467 91.2294 10.64C91.8294 10.12 92.7094 9.74 93.8694 9.5L97.3294 8.82C97.3294 8.12667 97.1694 7.60667 96.8494 7.26C96.5427 6.9 96.096 6.72 95.5094 6.72C94.936 6.72 94.4894 6.85333 94.1694 7.12C93.8494 7.37333 93.6427 7.75333 93.5494 8.26L90.5294 8.12C90.7294 6.94667 91.256 6.06 92.1094 5.46C92.976 4.84667 94.1094 4.54 95.5094 4.54C97.1094 4.54 98.3094 4.92 99.1094 5.68C99.9227 6.44 100.329 7.55333 100.329 9.02V12.68C100.329 12.9867 100.376 13.1933 100.469 13.3C100.576 13.3933 100.729 13.44 100.929 13.44H101.229V15.5C101.136 15.5267 100.983 15.5533 100.769 15.58C100.569 15.6067 100.369 15.62 100.169 15.62C99.7427 15.62 99.3427 15.5467 98.9694 15.4C98.6094 15.2533 98.316 15.0067 98.0894 14.66C97.8627 14.3 97.7494 13.7933 97.7494 13.14L98.0094 13.34C97.876 13.82 97.636 14.24 97.2894 14.6C96.956 14.96 96.516 15.24 95.9694 15.44C95.436 15.64 94.816 15.74 94.1094 15.74ZM94.8294 13.68C95.3227 13.68 95.756 13.5867 96.1294 13.4C96.5027 13.2 96.796 12.9133 97.0094 12.54C97.2227 12.1667 97.3294 11.7267 97.3294 11.22V10.7L94.8894 11.22C94.4094 11.3133 94.0427 11.4733 93.7894 11.7C93.5494 11.9133 93.4294 12.1933 93.4294 12.54C93.4294 12.9 93.5494 13.18 93.7894 13.38C94.0294 13.58 94.376 13.68 94.8294 13.68ZM103.418 15.5V4.64C103.418 3.57333 103.704 2.75333 104.278 2.18C104.851 1.59333 105.744 1.3 106.958 1.3H109.238V3.54H107.598C107.184 3.54 106.884 3.64667 106.698 3.86C106.511 4.06 106.418 4.36667 106.418 4.78V15.5H103.418ZM101.858 7.42V5.18H109.078V7.42H101.858ZM115.076 15.5C113.97 15.5 113.156 15.2467 112.636 14.74C112.116 14.22 111.856 13.4 111.856 12.28V2.26H114.856V11.92C114.856 12.44 114.963 12.7933 115.176 12.98C115.403 13.1667 115.736 13.26 116.176 13.26H117.676V15.5H115.076ZM110.136 7.02V4.78H117.676V7.02H110.136Z" fill="#FEE685"/>
</svg>
