<svg width="141" height="22" viewBox="0 0 141 22" fill="none" xmlns="http://www.w3.org/2000/svg">
<path d="M8 18.384C6.448 18.384 5.064 18.032 3.848 17.328C2.648 16.624 1.704 15.608 1.016 14.28C0.344 12.952 0.00800008 11.36 0.00800008 9.504C0.00800008 7.696 0.336 6.128 0.992 4.8C1.648 3.456 2.584 2.416 3.8 1.68C5.016 0.944 6.44 0.576 8.072 0.576C10.296 0.576 12.024 1.128 13.256 2.232C14.504 3.32 15.304 4.88 15.656 6.912L11.864 7.056C11.672 5.984 11.256 5.152 10.616 4.56C9.976 3.952 9.128 3.648 8.072 3.648C7.16 3.648 6.384 3.888 5.744 4.368C5.104 4.848 4.616 5.528 4.28 6.408C3.944 7.288 3.776 8.32 3.776 9.504C3.776 10.704 3.944 11.744 4.28 12.624C4.632 13.488 5.128 14.152 5.768 14.616C6.408 15.08 7.168 15.312 8.048 15.312C9.2 15.312 10.088 14.992 10.712 14.352C11.352 13.696 11.752 12.792 11.912 11.64L15.728 11.784C15.504 13.176 15.064 14.36 14.408 15.336C13.752 16.312 12.888 17.064 11.816 17.592C10.76 18.12 9.488 18.384 8 18.384ZM21.8141 18.288C20.4861 18.288 19.3981 17.984 18.5501 17.376C17.7181 16.752 17.3021 15.888 17.3021 14.784C17.3021 13.648 17.6541 12.776 18.3581 12.168C19.0781 11.544 20.1341 11.088 21.5261 10.8L25.6781 9.984C25.6781 9.152 25.4861 8.528 25.1021 8.112C24.7341 7.68 24.1981 7.464 23.4941 7.464C22.8061 7.464 22.2701 7.624 21.8861 7.944C21.5021 8.248 21.2541 8.704 21.1421 9.312L17.5181 9.144C17.7581 7.736 18.3901 6.672 19.4141 5.952C20.4541 5.216 21.8141 4.848 23.4941 4.848C25.4141 4.848 26.8541 5.304 27.8141 6.216C28.7901 7.128 29.2781 8.464 29.2781 10.224V14.616C29.2781 14.984 29.3341 15.232 29.4461 15.36C29.5741 15.472 29.7581 15.528 29.9981 15.528H30.3581V18C30.2461 18.032 30.0621 18.064 29.8061 18.096C29.5661 18.128 29.3261 18.144 29.0861 18.144C28.5741 18.144 28.0941 18.056 27.6461 17.88C27.2141 17.704 26.8621 17.408 26.5901 16.992C26.3181 16.56 26.1821 15.952 26.1821 15.168L26.4941 15.408C26.3341 15.984 26.0461 16.488 25.6301 16.92C25.2301 17.352 24.7021 17.688 24.0461 17.928C23.4061 18.168 22.6621 18.288 21.8141 18.288ZM22.6781 15.816C23.2701 15.816 23.7901 15.704 24.2381 15.48C24.6861 15.24 25.0381 14.896 25.2941 14.448C25.5501 14 25.6781 13.472 25.6781 12.864V12.24L22.7501 12.864C22.1741 12.976 21.7341 13.168 21.4301 13.44C21.1421 13.696 20.9981 14.032 20.9981 14.448C20.9981 14.88 21.1421 15.216 21.4301 15.456C21.7181 15.696 22.1341 15.816 22.6781 15.816ZM32.2481 18V5.136H35.6561L35.7761 8.88L35.5121 8.808C35.7201 7.512 36.0881 6.576 36.6161 6C37.1441 5.424 37.8721 5.136 38.8001 5.136H39.9761V8.112H38.8001C38.1281 8.112 37.5761 8.2 37.1441 8.376C36.7121 8.552 36.3841 8.832 36.1601 9.216C35.9521 9.6 35.8481 10.12 35.8481 10.776V18H32.2481ZM41.7637 21.6V5.136H45.2197L45.2917 7.848L45.0037 7.728C45.3237 6.8 45.8437 6.088 46.5637 5.592C47.2837 5.096 48.1237 4.848 49.0837 4.848C50.2837 4.848 51.2837 5.144 52.0837 5.736C52.8837 6.328 53.4837 7.136 53.8837 8.16C54.2997 9.168 54.5077 10.304 54.5077 11.568C54.5077 12.816 54.2997 13.952 53.8837 14.976C53.4837 16 52.8757 16.808 52.0597 17.4C51.2597 17.992 50.2597 18.288 49.0597 18.288C48.4357 18.288 47.8517 18.176 47.3077 17.952C46.7637 17.712 46.2917 17.384 45.8917 16.968C45.5077 16.552 45.2277 16.056 45.0517 15.48L45.3637 15.288V21.6H41.7637ZM48.0757 15.528C48.9237 15.528 49.5877 15.176 50.0677 14.472C50.5637 13.768 50.8117 12.8 50.8117 11.568C50.8117 10.336 50.5637 9.368 50.0677 8.664C49.5877 7.96 48.9237 7.608 48.0757 7.608C47.5157 7.608 47.0277 7.76 46.6117 8.064C46.2117 8.352 45.8997 8.792 45.6757 9.384C45.4677 9.976 45.3637 10.704 45.3637 11.568C45.3637 12.432 45.4677 13.16 45.6757 13.752C45.8997 14.344 46.2117 14.792 46.6117 15.096C47.0277 15.384 47.5157 15.528 48.0757 15.528ZM62.5243 18.288C61.2123 18.288 60.0683 18.016 59.0923 17.472C58.1323 16.912 57.3803 16.128 56.8363 15.12C56.3083 14.112 56.0443 12.928 56.0443 11.568C56.0443 10.208 56.3083 9.032 56.8363 8.04C57.3803 7.032 58.1323 6.248 59.0923 5.688C60.0523 5.128 61.1883 4.848 62.5003 4.848C63.7803 4.848 64.8923 5.128 65.8363 5.688C66.7803 6.248 67.5083 7.048 68.0203 8.088C68.5483 9.128 68.8123 10.368 68.8123 11.808V12.528H59.7643C59.8123 13.552 60.0843 14.312 60.5803 14.808C61.0923 15.304 61.7643 15.552 62.5963 15.552C63.2043 15.552 63.7083 15.424 64.1083 15.168C64.5243 14.912 64.8203 14.52 64.9963 13.992L68.6203 14.208C68.2843 15.488 67.5723 16.488 66.4843 17.208C65.3963 17.928 64.0763 18.288 62.5243 18.288ZM59.7643 10.32H65.1163C65.0683 9.376 64.8043 8.672 64.3243 8.208C63.8603 7.744 63.2523 7.512 62.5003 7.512C61.7483 7.512 61.1243 7.76 60.6283 8.256C60.1483 8.736 59.8603 9.424 59.7643 10.32ZM75.9667 18C74.6387 18 73.6627 17.696 73.0387 17.088C72.4147 16.464 72.1027 15.48 72.1027 14.136V2.112H75.7027V13.704C75.7027 14.328 75.8307 14.752 76.0867 14.976C76.3587 15.2 76.7587 15.312 77.2867 15.312H79.0867V18H75.9667ZM70.0387 7.824V5.136H79.0867V7.824H70.0387ZM88.7422 18.384C87.1902 18.384 85.8062 18.032 84.5902 17.328C83.3902 16.624 82.4462 15.608 81.7582 14.28C81.0862 12.952 80.7502 11.36 80.7502 9.504C80.7502 7.696 81.0782 6.128 81.7342 4.8C82.3902 3.456 83.3262 2.416 84.5422 1.68C85.7582 0.944 87.1822 0.576 88.8142 0.576C91.0382 0.576 92.7662 1.128 93.9982 2.232C95.2462 3.32 96.0462 4.88 96.3982 6.912L92.6062 7.056C92.4142 5.984 91.9982 5.152 91.3582 4.56C90.7182 3.952 89.8702 3.648 88.8142 3.648C87.9022 3.648 87.1262 3.888 86.4862 4.368C85.8462 4.848 85.3582 5.528 85.0222 6.408C84.6862 7.288 84.5182 8.32 84.5182 9.504C84.5182 10.704 84.6862 11.744 85.0222 12.624C85.3742 13.488 85.8702 14.152 86.5102 14.616C87.1502 15.08 87.9102 15.312 88.7902 15.312C89.9422 15.312 90.8302 14.992 91.4542 14.352C92.0942 13.696 92.4942 12.792 92.6542 11.64L96.4702 11.784C96.2462 13.176 95.8062 14.36 95.1502 15.336C94.4942 16.312 93.6302 17.064 92.5582 17.592C91.5022 18.12 90.2302 18.384 88.7422 18.384ZM98.7402 18V5.136H102.148L102.268 8.88L102.004 8.808C102.212 7.512 102.58 6.576 103.108 6C103.636 5.424 104.364 5.136 105.292 5.136H106.468V8.112H105.292C104.62 8.112 104.068 8.2 103.636 8.376C103.204 8.552 102.876 8.832 102.652 9.216C102.444 9.6 102.34 10.12 102.34 10.776V18H98.7402ZM111.931 18.288C110.603 18.288 109.515 17.984 108.667 17.376C107.835 16.752 107.419 15.888 107.419 14.784C107.419 13.648 107.771 12.776 108.475 12.168C109.195 11.544 110.251 11.088 111.643 10.8L115.795 9.984C115.795 9.152 115.603 8.528 115.219 8.112C114.851 7.68 114.315 7.464 113.611 7.464C112.923 7.464 112.387 7.624 112.003 7.944C111.619 8.248 111.371 8.704 111.259 9.312L107.635 9.144C107.875 7.736 108.507 6.672 109.531 5.952C110.571 5.216 111.931 4.848 113.611 4.848C115.531 4.848 116.971 5.304 117.931 6.216C118.907 7.128 119.395 8.464 119.395 10.224V14.616C119.395 14.984 119.451 15.232 119.563 15.36C119.691 15.472 119.875 15.528 120.115 15.528H120.475V18C120.363 18.032 120.179 18.064 119.923 18.096C119.683 18.128 119.443 18.144 119.203 18.144C118.691 18.144 118.211 18.056 117.763 17.88C117.331 17.704 116.979 17.408 116.707 16.992C116.435 16.56 116.299 15.952 116.299 15.168L116.611 15.408C116.451 15.984 116.163 16.488 115.747 16.92C115.347 17.352 114.819 17.688 114.163 17.928C113.523 18.168 112.779 18.288 111.931 18.288ZM112.795 15.816C113.387 15.816 113.907 15.704 114.355 15.48C114.803 15.24 115.155 14.896 115.411 14.448C115.667 14 115.795 13.472 115.795 12.864V12.24L112.867 12.864C112.291 12.976 111.851 13.168 111.547 13.44C111.259 13.696 111.115 14.032 111.115 14.448C111.115 14.88 111.259 15.216 111.547 15.456C111.835 15.696 112.251 15.816 112.795 15.816ZM123.101 18V4.968C123.101 3.688 123.445 2.704 124.133 2.016C124.821 1.312 125.893 0.959999 127.349 0.959999H130.085V3.648H128.117C127.621 3.648 127.261 3.776 127.037 4.032C126.813 4.272 126.701 4.64 126.701 5.136V18H123.101ZM121.229 8.304V5.616H129.893V8.304H121.229ZM137.092 18C135.764 18 134.788 17.696 134.164 17.088C133.54 16.464 133.228 15.48 133.228 14.136V2.112H136.828V13.704C136.828 14.328 136.956 14.752 137.212 14.976C137.484 15.2 137.884 15.312 138.412 15.312H140.212V18H137.092ZM131.164 7.824V5.136H140.212V7.824H131.164Z" fill="#973C00"/>
</svg>
