<svg width="16" height="17" viewBox="0 0 16 17" fill="none" xmlns="http://www.w3.org/2000/svg">
<path d="M7.68323 2.03C7.71245 1.97097 7.75758 1.92129 7.81353 1.88655C7.86949 1.85181 7.93404 1.8334 7.9999 1.8334C8.06576 1.8334 8.13031 1.85181 8.18626 1.88655C8.24222 1.92129 8.28735 1.97097 8.31656 2.03L9.85656 5.14933C9.95802 5.35465 10.1078 5.53227 10.293 5.66697C10.4782 5.80167 10.6933 5.88941 10.9199 5.92267L14.3639 6.42667C14.4292 6.43612 14.4905 6.46365 14.5409 6.50613C14.5913 6.54862 14.6289 6.60437 14.6492 6.66707C14.6696 6.72978 14.6721 6.79694 14.6563 6.86096C14.6405 6.92498 14.6071 6.9833 14.5599 7.02933L12.0692 9.45467C11.905 9.61474 11.7821 9.81232 11.7111 10.0304C11.6402 10.2485 11.6233 10.4806 11.6619 10.7067L12.2499 14.1333C12.2614 14.1986 12.2544 14.2657 12.2296 14.3271C12.2048 14.3885 12.1632 14.4417 12.1096 14.4807C12.056 14.5196 11.9926 14.5427 11.9265 14.5473C11.8604 14.5519 11.7944 14.5378 11.7359 14.5067L8.65723 12.888C8.45438 12.7815 8.22868 12.7258 7.99956 12.7258C7.77044 12.7258 7.54475 12.7815 7.3419 12.888L4.2639 14.5067C4.20545 14.5376 4.1395 14.5515 4.07353 14.5468C4.00757 14.5421 3.94424 14.519 3.89076 14.4801C3.83728 14.4412 3.79579 14.3881 3.771 14.3268C3.74622 14.2655 3.73914 14.1985 3.75056 14.1333L4.3379 10.7073C4.3767 10.4812 4.35989 10.2489 4.28892 10.0307C4.21796 9.81246 4.09497 9.61477 3.93056 9.45467L1.4399 7.03C1.39229 6.98402 1.35856 6.9256 1.34254 6.86138C1.32652 6.79717 1.32886 6.72975 1.34928 6.66679C1.36971 6.60384 1.40741 6.54789 1.45808 6.50532C1.50876 6.46275 1.57037 6.43527 1.6359 6.426L5.07923 5.92267C5.30607 5.88967 5.52149 5.80204 5.70695 5.66733C5.89242 5.53261 6.04237 5.35485 6.1439 5.14933L7.68323 2.03Z" fill="#FCC800" stroke="#FCC800" stroke-width="1.33333" stroke-linecap="round" stroke-linejoin="round"/>
</svg>
