<svg width="17" height="17" viewBox="0 0 17 17" fill="none" xmlns="http://www.w3.org/2000/svg">
<path d="M6.03385 15.1667C6.40204 15.1667 6.70052 14.8682 6.70052 14.5C6.70052 14.1318 6.40204 13.8333 6.03385 13.8333C5.66566 13.8333 5.36719 14.1318 5.36719 14.5C5.36719 14.8682 5.66566 15.1667 6.03385 15.1667Z" stroke="white" stroke-width="1.33333" stroke-linecap="round" stroke-linejoin="round"/>
<path d="M13.3669 15.1667C13.7351 15.1667 14.0335 14.8682 14.0335 14.5C14.0335 14.1318 13.7351 13.8333 13.3669 13.8333C12.9987 13.8333 12.7002 14.1318 12.7002 14.5C12.7002 14.8682 12.9987 15.1667 13.3669 15.1667Z" stroke="white" stroke-width="1.33333" stroke-linecap="round" stroke-linejoin="round"/>
<path d="M2.06641 1.86667H3.39974L5.17307 10.1467C5.23813 10.4499 5.40685 10.721 5.65021 10.9132C5.89357 11.1055 6.19634 11.2069 6.50641 11.2H13.0264C13.3299 11.1995 13.6241 11.0955 13.8604 10.9052C14.0968 10.7149 14.2612 10.4497 14.3264 10.1533L15.4264 5.2H4.11307" stroke="white" stroke-width="1.33333" stroke-linecap="round" stroke-linejoin="round"/>
</svg>
